<?xml version="1.0" encoding="UTF-8" standalone="no"?>
<!DOCTYPE svg PUBLIC "-//W3C//DTD SVG 1.1//EN" "http://www.w3.org/Graphics/SVG/1.1/DTD/svg11.dtd">
<svg xmlns="http://www.w3.org/2000/svg" version="1.1" viewBox="0.00 0.00 1430.00 366.00">
<path fill="#e8e8e8" d="
  M 694.87 0.00
  L 751.33 0.00
  L 750.98 27.03
  Q 750.98 27.49 750.51 27.49
  L 714.76 27.47
  A 0.35 0.35 0.0 0 0 714.40 27.83
  L 714.56 49.03
  A 0.47 0.47 0.0 0 0 715.03 49.50
  L 742.53 49.50
  Q 743.07 49.50 743.07 50.04
  L 742.96 76.71
  Q 742.96 77.13 742.54 77.13
  L 715.32 77.14
  Q 714.77 77.14 714.78 77.68
  L 714.94 89.46
  Q 714.95 89.97 715.46 89.97
  L 752.03 90.03
  Q 752.53 90.03 752.52 90.53
  L 751.16 192.77
  Q 751.15 193.23 750.70 193.22
  Q 706.89 192.65 663.11 194.43
  Q 662.70 194.45 662.68 194.04
  L 654.81 1.77
  Q 654.79 1.32 655.23 1.31
  L 694.87 0.00
  Z"
/>
<path fill="#e8e8e8" d="
  M 811.47 97.54
  L 806.87 194.49
  A 0.35 0.34 -87.4 0 1 806.52 194.82
  L 765.98 193.40
  A 0.41 0.40 -88.6 0 1 765.59 192.98
  L 769.85 0.59
  Q 769.86 0.03 770.42 0.06
  L 838.26 2.85
  A 0.58 0.57 83.3 0 1 838.80 3.28
  L 858.86 81.16
  Q 858.90 81.30 858.96 81.17
  L 892.17 7.43
  A 0.86 0.84 14.9 0 1 893.03 6.94
  L 960.13 14.24
  A 0.55 0.55 0.0 0 1 960.62 14.86
  L 936.24 205.65
  Q 936.18 206.12 935.72 206.06
  L 889.52 200.85
  Q 889.22 200.81 889.25 200.51
  L 898.73 104.22
  Q 898.98 101.61 898.01 104.04
  Q 879.20 150.80 861.90 198.14
  A 0.38 0.38 0.0 0 1 861.52 198.38
  L 835.00 196.45
  A 0.53 0.53 0.0 0 1 834.52 196.03
  Q 824.11 146.57 812.13 97.47
  Q 811.58 95.23 811.47 97.54
  Z"
/>
<path fill="#e8e8e8" d="
  M 559.28 113.72
  L 567.91 200.48
  A 0.46 0.46 0.0 0 1 567.50 200.99
  L 515.40 207.03
  A 0.27 0.26 -7.8 0 1 515.10 206.81
  L 489.79 15.85
  Q 489.74 15.46 490.13 15.41
  L 548.20 8.67
  A 0.61 0.61 0.0 0 1 548.88 9.22
  L 555.33 74.11
  A 0.50 0.50 0.0 0 0 555.86 74.56
  L 558.11 74.47
  Q 558.68 74.44 558.89 73.91
  L 585.41 5.92
  Q 585.63 5.34 586.26 5.30
  L 639.42 1.90
  A 0.37 0.37 0.0 0 1 639.78 2.42
  Q 619.53 45.82 601.21 90.06
  Q 600.99 90.60 601.56 90.58
  C 615.64 90.26 632.80 97.42 638.68 111.30
  Q 640.25 115.01 640.64 122.43
  Q 642.55 158.58 644.41 194.72
  Q 644.43 195.11 644.05 195.13
  L 586.09 199.21
  Q 585.57 199.24 585.52 198.72
  L 577.82 111.73
  A 0.31 0.31 0.0 0 0 577.48 111.45
  L 559.78 113.11
  Q 559.22 113.17 559.28 113.72
  Z"
/>
<path fill="#e8e8e8" d="
  M 1020.35 114.46
  L 1056.63 121.03
  A 0.34 0.34 0.0 0 1 1056.90 121.43
  L 1037.60 221.78
  Q 1037.49 222.35 1036.93 222.24
  C 1008.13 217.01 979.36 212.11 950.46 208.09
  Q 949.92 208.02 949.99 207.47
  L 976.02 16.75
  Q 976.04 16.55 976.24 16.58
  Q 1023.99 23.11 1071.34 32.13
  A 0.32 0.31 10.4 0 1 1071.59 32.49
  L 1066.56 58.77
  Q 1066.47 59.25 1065.99 59.17
  L 1030.84 52.83
  Q 1030.28 52.73 1030.19 53.29
  L 1026.66 74.03
  Q 1026.58 74.50 1027.05 74.58
  L 1054.30 79.43
  Q 1054.81 79.53 1054.72 80.04
  L 1049.84 106.22
  Q 1049.75 106.69 1049.28 106.60
  L 1022.48 101.83
  Q 1021.95 101.73 1021.86 102.27
  L 1019.91 113.83
  Q 1019.82 114.36 1020.35 114.46
  Z"
/>
<path fill="#e8e8e8" d="
  M 477.37 17.46
  L 503.98 208.20
  A 0.35 0.35 0.0 0 1 503.69 208.59
  L 451.77 216.71
  A 0.35 0.35 0.0 0 1 451.37 216.42
  L 418.54 26.66
  A 0.35 0.35 0.0 0 1 418.83 26.26
  L 476.97 17.16
  A 0.35 0.35 0.0 0 1 477.37 17.46
  Z"
/>
<path fill="#e8e8e8" d="
  M 1152.26 49.54
  C 1167.26 53.37 1182.24 63.87 1191.39 75.87
  C 1206.65 95.91 1207.60 121.96 1202.79 145.76
  Q 1197.77 170.57 1188.09 193.97
  C 1179.51 214.71 1163.14 232.87 1140.24 237.21
  C 1126.56 239.80 1115.50 239.19 1100.99 235.89
  Q 1076.61 230.34 1052.14 225.26
  Q 1051.70 225.17 1051.79 224.73
  L 1089.78 36.28
  Q 1089.86 35.85 1090.30 35.94
  Q 1126.64 43.00 1152.26 49.54
  Z
  M 1160.57 133.46
  C 1165.24 118.08 1164.72 97.24 1155.18 84.08
  C 1150.02 76.95 1143.66 75.68 1135.91 74.01
  A 0.42 0.42 0.0 0 0 1135.41 74.33
  L 1113.15 170.28
  A 0.43 0.42 13.5 0 0 1113.47 170.79
  C 1121.06 172.60 1127.47 174.75 1134.94 170.68
  C 1147.69 163.73 1156.40 147.19 1160.57 133.46
  Z"
/>
<path fill="#e8e8e8" d="
  M 350.27 181.03
  A 0.37 0.37 0.0 0 0 349.99 181.47
  L 362.25 234.46
  A 0.33 0.33 0.0 0 1 362.01 234.85
  L 310.69 247.60
  A 0.28 0.28 0.0 0 1 310.35 247.40
  L 260.93 61.52
  Q 260.81 61.08 261.25 60.97
  Q 298.50 50.92 331.74 43.72
  C 342.89 41.31 355.26 40.94 366.28 43.52
  C 412.06 54.23 416.69 107.20 399.69 142.63
  C 398.95 144.18 397.61 146.01 396.63 147.73
  Q 396.37 148.18 396.64 148.64
  L 437.14 219.04
  A 0.22 0.21 69.0 0 1 437.00 219.36
  L 385.77 229.55
  A 0.66 0.66 0.0 0 1 385.08 229.25
  L 354.60 180.27
  A 0.30 0.29 68.3 0 0 354.29 180.13
  L 350.27 181.03
  Z
  M 364.16 101.37
  C 361.32 80.34 347.39 63.58 324.25 67.98
  A 0.45 0.44 -12.0 0 0 323.90 68.51
  L 342.36 148.41
  A 0.36 0.36 0.0 0 0 342.79 148.68
  C 362.67 144.33 366.40 117.96 364.16 101.37
  Z"
/>
<path fill="#e8e8e8" d="
  M 172.86 144.85
  L 146.55 153.81
  Q 146.14 153.95 146.00 153.55
  L 128.13 102.38
  Q 127.94 101.84 128.49 101.64
  Q 186.08 81.54 244.90 65.33
  Q 245.42 65.19 245.56 65.71
  L 259.94 117.92
  Q 260.07 118.40 259.58 118.54
  L 229.53 127.10
  Q 229.03 127.25 229.18 127.75
  L 267.96 259.23
  A 0.35 0.34 73.2 0 1 267.74 259.65
  L 217.19 275.47
  Q 216.81 275.58 216.69 275.21
  L 173.66 145.25
  Q 173.46 144.65 172.86 144.85
  Z"
/>
<path fill="#e8e8e8" d="
  M 1297.41 90.59
  L 1237.41 273.68
  A 0.31 0.31 0.0 0 1 1237.03 273.88
  L 1186.33 258.19
  A 0.31 0.31 0.0 0 1 1186.13 257.81
  L 1240.07 72.83
  A 0.31 0.31 0.0 0 1 1240.46 72.62
  L 1297.21 90.20
  A 0.31 0.31 0.0 0 1 1297.41 90.59
  Z"
/>
<path fill="#e8e8e8" d="
  M 140.29 297.99
  L 149.35 316.83
  Q 149.58 317.31 149.09 317.51
  L 113.95 331.53
  Q 113.43 331.73 113.27 331.21
  L 108.64 316.31
  A 0.44 0.44 0.0 0 0 108.04 316.03
  L 67.17 333.53
  A 0.29 0.28 65.7 0 1 66.80 333.38
  L 27.89 245.87
  A 0.43 0.43 0.0 0 1 28.13 245.30
  C 39.81 240.72 52.12 235.71 61.93 227.68
  C 65.65 224.64 68.28 219.05 62.91 215.81
  Q 61.04 214.68 55.25 214.61
  C 40.14 214.43 23.37 216.58 10.59 207.70
  C 2.36 201.97 -1.28 188.81 1.53 179.24
  C 6.20 163.38 22.19 149.79 36.66 142.47
  Q 37.02 142.29 36.84 141.92
  L 24.91 118.07
  Q 24.62 117.49 25.22 117.24
  L 63.80 101.83
  Q 64.39 101.59 64.58 102.20
  L 72.32 127.52
  Q 72.50 128.10 73.07 127.89
  C 75.01 127.17 76.74 126.44 78.72 126.12
  C 105.92 121.86 120.43 134.91 128.59 159.59
  Q 128.76 160.10 128.26 160.28
  L 92.75 173.55
  Q 92.23 173.74 92.03 173.24
  C 90.33 168.92 88.69 162.06 85.30 158.96
  Q 77.46 151.78 66.39 154.61
  C 56.71 157.08 47.01 163.36 50.50 175.00
  C 53.89 186.29 69.93 188.64 80.00 189.03
  C 101.75 189.87 126.99 188.95 146.22 204.15
  Q 158.54 213.88 164.70 228.75
  C 166.50 233.08 167.52 238.31 168.64 243.12
  C 170.39 250.62 167.17 261.34 164.13 268.21
  C 158.51 280.92 150.93 288.42 140.48 297.16
  Q 140.06 297.50 140.29 297.99
  Z"
/>
<path fill="#e8e8e8" d="
  M 1430.00 139.70
  Q 1429.99 139.84 1430.00 139.97
  C 1419.27 205.06 1408.08 269.85 1394.78 334.38
  A 0.32 0.31 -72.6 0 1 1394.35 334.61
  L 1345.28 313.66
  Q 1344.91 313.50 1344.96 313.10
  L 1350.97 262.83
  Q 1351.01 262.50 1350.70 262.38
  L 1322.33 251.38
  Q 1321.88 251.21 1321.60 251.61
  L 1293.16 293.00
  Q 1292.90 293.39 1292.46 293.23
  L 1248.41 277.74
  A 0.31 0.31 0.0 0 1 1248.25 277.29
  Q 1298.58 192.45 1353.07 110.23
  Q 1353.35 109.82 1353.82 109.99
  Q 1392.29 124.00 1430.00 139.70
  Z
  M 1372.28 178.61
  C 1372.57 176.74 1373.05 171.46 1371.53 170.04
  A 2.59 2.58 46.6 0 0 1368.11 169.94
  Q 1364.50 172.94 1361.99 176.75
  Q 1352.85 190.64 1343.86 204.63
  C 1334.48 219.25 1362.79 230.29 1366.11 213.51
  Q 1369.55 196.12 1372.28 178.61
  Z"
/>
<path fill="#e8e8e8" d="
  M 1371.47 366.00
  L 1357.00 366.00
  Q 1355.66 365.27 1352.81 364.16
  C 961.01 212.31 526.26 212.23 134.72 363.89
  Q 132.25 364.84 129.88 366.00
  L 115.29 366.00
  C 113.11 359.68 111.36 358.10 118.92 355.11
  C 358.21 260.62 618.10 220.86 874.72 241.10
  Q 1131.71 261.36 1371.25 356.48
  C 1375.34 358.10 1373.19 362.69 1371.47 366.00
  Z"
/>
</svg>
